<svg preserveAspectRatio="none" width="100%" height="100%" overflow="visible" style="display: block;" viewBox="0 0 57 24" fill="none" xmlns="http://www.w3.org/2000/svg">
<g id="goldman-sachs-2 1" clip-path="url(#clip0_0_555)">
<path id="Vector" d="M5.14562 5.62398H8.52309V11.1647C7.39528 11.3936 6.53163 11.5095 5.58487 11.5095C1.88093 11.5095 0.575058 9.3842 0.575058 5.88556C0.575058 2.12534 2.38548 1.28694e-07 5.99444 1.28694e-07C6.45149 1.28694e-07 7.31515 0.0326977 8.3925 0.196185V3.74238H7.60897L7.16676 2.38692C6.74235 1.09685 6.2378 0.457766 5.43647 0.457766C4.05046 0.457766 3.31443 2.33639 3.31443 5.85286C3.31443 9.3842 3.60825 11.0518 5.41867 11.0518C5.665 11.0518 5.95585 11.0191 6.23484 10.9388V6.81595L5.14265 6.06391V5.62398H5.14562ZM8.45779 20.4984C8.45779 22.7218 6.9412 23.997 4.26415 23.997C3.53108 23.997 2.45374 23.8841 1.44168 23.7176V19.3718H2.22521L2.55168 20.4003C3.28475 22.7694 3.8071 23.5541 4.73902 23.5541C5.71842 23.5541 6.41885 22.6891 6.41885 21.5447C6.41885 20.6143 5.9796 19.9604 5.03284 19.4521L3.4005 18.5692C2.14211 17.9004 1.45652 16.8541 1.45652 15.5789C1.45652 13.6497 3.03841 12.4905 5.63532 12.4905C6.22297 12.4905 6.90855 12.541 8.00074 12.6866V16.2328H7.21721L6.77796 14.8774C6.33575 13.4387 5.86385 12.9155 5.00019 12.9155C4.03563 12.9155 3.46579 13.5368 3.46579 14.4345C3.46579 15.2341 3.90801 15.8078 4.77166 16.2982L6.41885 17.2286C7.80485 18.0134 8.45779 19.0597 8.45779 20.4984ZM15.6727 23.0666L15.9992 23.5571V23.8038H13.5032L13.3875 22.8556C13.1263 23.5749 12.4407 24 11.5592 24C10.2534 24 9.4372 23.1826 9.4372 21.842C9.4372 20.5341 10.1703 19.6691 12.4229 18.7862L13.3845 18.4117V17.187C13.3845 16.108 13.1886 15.6681 12.5861 15.6681C12.0964 15.6681 11.8204 15.9297 11.3456 17.1216L10.8084 18.4563H10.0753V15.7899C11.0369 15.4957 12.0015 15.2995 12.8325 15.2995C14.6755 15.2995 15.6727 16.1823 15.6727 17.7845V23.0666ZM16.6165 7.16076C16.6165 9.94006 15.1326 11.5095 13.2213 11.5095C11.3129 11.5095 9.82896 9.94006 9.82896 7.16076C9.82896 4.38147 11.3129 2.81199 13.2242 2.81199C15.1326 2.81199 16.6165 4.38147 16.6165 7.16076ZM13.3875 21.6933V18.8665L13.0788 18.9973C12.1142 19.3896 11.7551 20.2725 11.7551 21.5625C11.7551 22.5286 11.9837 23.0815 12.5208 23.0815C13.058 23.0815 13.3875 22.5583 13.3875 21.6933ZM14.2185 7.16076C14.2185 4.0218 13.9573 3.1895 13.2242 3.1895C12.4912 3.1895 12.23 4.0218 12.23 7.16076C12.23 10.2997 12.4912 11.132 13.2242 11.132C13.9573 11.132 14.2185 10.2997 14.2185 7.16076ZM22.4128 21.7736L22.7067 21.9222C22.1843 23.4263 21.5165 23.997 20.2255 23.997C18.1213 23.997 16.946 22.4127 16.946 19.6483C16.946 16.8868 18.3171 15.2995 20.552 15.2995C21.1545 15.2995 21.9558 15.3976 22.6414 15.674V18.4533H21.8757L21.567 17.407C21.1574 16.0188 20.9319 15.6592 20.5223 15.6592C19.8694 15.6592 19.347 16.5093 19.347 19.7463C19.347 22.3443 19.7388 23.2925 20.733 23.2925C21.4008 23.2955 21.9706 22.8704 22.4128 21.7736ZM20.5995 11.3134H17.6612V11.0696L17.9877 10.5791V1.45653L17.6612 0.966064V0.719346L20.273 0.523161V10.5762L20.5995 11.0666V11.3134ZM24.615 11.5095C22.8194 11.5095 21.7421 9.87466 21.7421 7.08051C21.7421 4.30121 22.8669 2.81496 24.5972 2.81496C25.4787 2.81496 25.9684 3.1568 26.1791 3.84345V1.45653L25.8526 0.966064V0.719346L28.4644 0.523161V10.5762L28.7909 11.0666V11.3104H26.4729L26.2949 10.0679C26.0366 11.132 25.5469 11.5095 24.615 11.5095ZM30.3431 23.0666L30.6695 23.5571V23.8038H27.7313V23.5571L28.0578 23.0666V17.1811C28.0578 16.4796 27.8471 16.0545 27.3396 16.0545C26.7341 16.0545 26.2949 16.5628 26.2949 17.5586V23.0666L26.6213 23.5571V23.8038H23.6831V23.5571L24.0096 23.0666V13.944L23.6831 13.4536V13.2098L26.2949 13.0136V16.3963C26.5887 15.6948 27.2565 15.3025 28.2032 15.3025C29.5417 15.3025 30.3401 16.1526 30.3401 17.8023V23.0666H30.3431ZM24.1431 7.11023C24.1431 10.053 24.4043 10.9507 25.1225 10.9507C26.0188 10.9507 26.1821 9.66064 26.1821 7.07753C26.1821 4.57766 26.004 3.33515 25.1374 3.33515C24.4043 3.33515 24.1431 4.21798 24.1431 7.11023ZM40.5289 10.5762L40.8554 11.0666V11.3104H37.9171V11.0666L38.2436 10.5762V4.51226C38.2436 3.92371 38.0477 3.56403 37.5907 3.56403C37.0208 3.56403 36.5638 4.07233 36.5638 5.05029V10.5762L36.8902 11.0666V11.3104H33.952V11.0666L34.2785 10.5762V4.51226C34.2785 3.92371 34.0826 3.56403 33.6256 3.56403C33.0557 3.56403 32.5987 4.07233 32.5987 5.05029V10.5762L32.9251 11.0666V11.3104H29.9869V11.0666L30.3134 10.5762V3.92371L29.9869 3.53134V3.28759L32.3375 3.00817H32.5334L32.5987 3.92371C32.8747 3.20436 33.5603 2.81199 34.4922 2.81199C35.4864 2.81199 36.1394 3.30245 36.4332 4.18529C36.6766 3.33515 37.4452 2.81199 38.4246 2.81199C39.7127 2.81199 40.5289 3.66213 40.5289 5.31187V10.5762ZM37.4779 21.3991C37.4779 22.8199 36.5638 23.997 34.3616 23.997C33.7918 23.997 33.0231 23.9316 31.8329 23.7176V20.6797H32.5007L32.7114 21.3337C33.2338 23.0012 33.7383 23.6225 34.5397 23.6225C35.2905 23.6225 35.7803 23.0815 35.7803 22.2492C35.7803 21.5625 35.436 21.0899 34.6228 20.647L33.219 19.895C32.3227 19.4045 31.8329 18.6376 31.8329 17.6894C31.8329 16.2031 32.9934 15.3025 34.9166 15.3025C35.4716 15.3025 36.1898 15.3827 36.9733 15.5462V17.9331H36.3056L35.9613 17.0651C35.5695 16.0188 35.1956 15.677 34.5753 15.677C33.9075 15.677 33.5157 16.0694 33.5157 16.7233C33.5157 17.2792 33.8422 17.6537 34.6406 18.1115L36.0266 18.8962C36.9704 19.4372 37.4779 20.2041 37.4779 21.3991ZM48.0377 10.5762L48.3641 11.0666V11.3104H45.8681L45.7553 10.3622C45.4942 11.0815 44.8086 11.5066 43.9271 11.5066C42.6212 11.5066 41.8051 10.6891 41.8051 9.34853C41.8051 8.04062 42.5381 7.17563 44.7908 6.29279L45.7524 5.91826V4.69358C45.7524 3.61457 45.5565 3.17464 44.954 3.17464C44.4643 3.17464 44.1883 3.43622 43.7134 4.62819L43.1762 5.96879H42.4402V3.30543C43.4048 3.01115 44.3664 2.81496 45.1974 2.81496C47.0404 2.81496 48.0377 3.6978 48.0377 5.29998V10.5762ZM45.7524 9.20287V6.37602L45.4437 6.50681C44.4821 6.89918 44.123 7.78202 44.123 9.07208C44.123 10.0381 44.3515 10.594 44.8887 10.594C45.4259 10.594 45.7524 10.0708 45.7524 9.20287ZM56.4249 11.0666V11.3104H53.4867V11.0666L53.8132 10.5762V4.69061C53.8132 3.98613 53.6025 3.56403 53.095 3.56403C52.4895 3.56403 52.0503 4.07233 52.0503 5.06812V10.5762L52.3767 11.0666V11.3104H49.4385V11.0666L49.765 10.5762V3.92371L49.4385 3.53134V3.28759L51.7891 3.00817H51.985L52.0503 3.92371C52.3263 3.20436 52.997 2.81199 53.9586 2.81199C55.2971 2.81199 56.0955 3.66213 56.0955 5.31187V10.5762L56.4249 11.0666Z" fill="var(--fill-0, white)"/>
</g>
<defs>
<clipPath id="clip0_0_555">
<rect width="57" height="24" fill="white"/>
</clipPath>
</defs>
</svg>
