<svg preserveAspectRatio="none" width="100%" height="100%" overflow="visible" style="display: block;" viewBox="0 0 31 24" fill="none" xmlns="http://www.w3.org/2000/svg">
<g id="Group">
<path id="Vector" fill-rule="evenodd" clip-rule="evenodd" d="M12.8917 18.1974L12.8923 24H14.5308V18.1975L12.8917 18.1974ZM0 18.1896V24H1.65335V19.588L2.93422 19.5884C3.35848 19.5884 3.6606 19.694 3.86506 19.9121C4.1244 20.1883 4.23011 20.6337 4.23011 21.4485V24H5.83201V20.7898C5.83201 18.4986 4.37149 18.1895 2.94259 18.1895L0 18.1896ZM15.5303 18.1975V24H18.1885C19.6046 24 20.0667 23.7644 20.5666 23.2364C20.9201 22.8656 21.1484 22.0518 21.1484 21.1625C21.1484 20.347 20.9551 19.6193 20.618 19.1662C20.0108 18.3559 19.136 18.1975 17.8304 18.1975H15.5303ZM17.1559 19.4609H17.8606C18.8828 19.4609 19.544 19.92 19.544 21.1111C19.544 22.3025 18.8828 22.7615 17.8606 22.7615H17.1559V19.4609ZM10.5289 18.1975L9.16119 22.7964L7.85057 18.1978L6.08157 18.1975L7.95319 24H10.3153L12.2016 18.1975H10.529H10.5289ZM21.9109 24H23.55V18.198L21.9106 18.1975L21.9109 24ZM26.505 18.1995L24.2165 23.998H25.8325L26.1947 22.9731H28.9027L29.2453 23.998H31L28.6941 18.1991L26.505 18.1995ZM27.5688 19.2575L28.5615 21.9739H26.5448L27.5688 19.2575Z" fill="var(--fill-0, white)"/>
<path id="Vector_2" fill-rule="evenodd" clip-rule="evenodd" d="M10.7232 4.60503V3.21103C10.8602 3.20131 10.9973 3.19428 11.1345 3.18995C14.9471 3.07012 17.4486 6.46592 17.4486 6.46592C17.4486 6.46592 14.747 10.2181 11.8503 10.2181C11.433 10.2181 11.0598 10.151 10.7232 10.038V5.81085C12.2075 5.99004 12.5059 6.64573 13.3984 8.13321L15.383 6.45987C15.383 6.45987 13.9344 4.55977 11.4922 4.55977C11.2264 4.55977 10.9725 4.57837 10.7232 4.60503ZM10.7232 0.00015501V2.0824C10.8599 2.07155 10.997 2.06287 11.1345 2.05791C16.4366 1.87934 19.8909 6.40624 19.8909 6.40624C19.8909 6.40624 15.9231 11.2308 11.7897 11.2308C11.411 11.2308 11.0565 11.1959 10.7232 11.1368V12.4239C11.0081 12.4601 11.3033 12.4815 11.6114 12.4815C15.4581 12.4815 18.2397 10.5173 20.9335 8.19226C21.3798 8.54987 23.2083 9.41979 23.5842 9.80095C21.023 11.945 15.0542 13.6731 11.6705 13.6731C11.3541 13.6719 11.038 13.6555 10.7232 13.6238V15.4328H25.3433V0H10.7234L10.7232 0.00015501ZM10.7232 10.038V11.1368C7.16539 10.5024 6.17797 6.80446 6.17797 6.80446C6.17797 6.80446 7.8862 4.91179 10.7232 4.60503V5.81085C10.7211 5.81085 10.7195 5.81023 10.7176 5.81023C9.22891 5.63135 8.0657 7.02241 8.0657 7.02241C8.0657 7.02241 8.71737 9.36398 10.7232 10.038ZM4.40432 6.64403C4.40432 6.64403 6.51279 3.53267 10.7232 3.21103V2.0824C6.05985 2.45659 2.02148 6.40609 2.02148 6.40609C2.02148 6.40609 4.30837 13.0185 10.7232 13.6238L10.7234 12.424C6.01598 11.8316 4.40432 6.64403 4.40432 6.64403Z" fill="var(--fill-0, white)"/>
</g>
</svg>
