<svg preserveAspectRatio="none" width="100%" height="100%" overflow="visible" style="display: block;" viewBox="0 0 24 24" fill="none" xmlns="http://www.w3.org/2000/svg">
<g id="mcdonald-s-15-logo-svgrepo-com 1">
<path id="Vector" d="M15.7718 3.7723C17.6649 3.7723 19.1999 11.7539 19.1999 21.5997H21.943C21.943 10.9963 19.1797 2.40074 15.7719 2.40074C13.8328 2.40074 12.1029 4.98403 10.9718 9.02358C9.84084 4.98403 8.11034 2.40074 6.1715 2.40074C2.76365 2.40074 2.45765e-07 10.9963 2.45765e-07 21.5997H2.74345C2.74345 11.7539 4.27857 3.7723 6.1715 3.7723C8.06499 3.7723 9.60052 11.1399 9.60052 20.2289H12.343C12.3431 11.1399 13.8781 3.7723 15.7718 3.7723ZM23.316 20.2289C23.6881 20.2289 24 20.5235 24 20.9111C24 21.3048 23.6881 21.5996 23.316 21.5996C22.9427 21.5996 22.6282 21.3047 22.6282 20.9111C22.6282 20.5235 22.9427 20.2289 23.316 20.2289ZM23.316 21.4995C23.6312 21.4995 23.8759 21.2463 23.8759 20.9113C23.8759 20.5822 23.631 20.3293 23.316 20.3293C22.997 20.3293 22.7526 20.5822 22.7526 20.9113C22.7525 21.2463 22.997 21.4995 23.316 21.4995ZM23.0494 20.513H23.3584C23.5475 20.513 23.6367 20.5883 23.6367 20.7418C23.6367 20.8867 23.5463 20.9472 23.4278 20.9598L23.6553 21.3141H23.5218L23.305 20.9694H23.1739V21.3141H23.0495L23.0494 20.513ZM23.1738 20.8689H23.3034C23.4125 20.8689 23.513 20.8635 23.513 20.7365C23.513 20.63 23.4218 20.6132 23.338 20.6132H23.174L23.1738 20.8689Z" fill="var(--fill-0, #FFC300)"/>
</g>
</svg>
