<svg preserveAspectRatio="none" width="100%" height="100%" overflow="visible" style="display: block;" viewBox="0 0 23.9762 18.6047" fill="none" xmlns="http://www.w3.org/2000/svg">
<g id="Group">
<path id="Vector" d="M4.36305 18.5636V17.3287C4.36305 16.8554 4.07493 16.5467 3.581 16.5467C3.33403 16.5467 3.06649 16.629 2.88126 16.8965C2.7372 16.6702 2.5314 16.5467 2.22269 16.5467C2.01688 16.5467 1.81108 16.6084 1.64644 16.8348V16.5878H1.21425V18.5636H1.64644V17.4728C1.64644 17.1229 1.83166 16.9583 2.11979 16.9583C2.40791 16.9583 2.55198 17.1435 2.55198 17.4728V18.5636H2.98416V17.4728C2.98416 17.1229 3.18997 16.9583 3.45752 16.9583C3.74564 16.9583 3.8897 17.1435 3.8897 17.4728V18.5636H4.36305ZM10.7636 16.5878H10.0638V15.991H9.63165V16.5878H9.24062V16.9789H9.63165V17.8844C9.63165 18.3372 9.81687 18.6047 10.3108 18.6047C10.496 18.6047 10.7018 18.543 10.8459 18.4607L10.7224 18.0902C10.5989 18.1725 10.4549 18.1931 10.352 18.1931C10.1462 18.1931 10.0638 18.0696 10.0638 17.8638V16.9789H10.7636V16.5878ZM14.4269 16.5467C14.1799 16.5467 14.0153 16.6702 13.9124 16.8348V16.5878H13.4802V18.5636H13.9124V17.4522C13.9124 17.1229 14.0564 16.9377 14.324 16.9377C14.4063 16.9377 14.5092 16.9583 14.5915 16.9789L14.715 16.5673C14.6327 16.5467 14.5092 16.5467 14.4269 16.5467ZM8.89075 16.7525C8.68495 16.6084 8.39682 16.5467 8.08812 16.5467C7.59418 16.5467 7.2649 16.7936 7.2649 17.1847C7.2649 17.514 7.51186 17.6992 7.94405 17.7609L8.14986 17.7815C8.37624 17.8227 8.49972 17.8844 8.49972 17.9873C8.49972 18.1314 8.33508 18.2343 8.04695 18.2343C7.75883 18.2343 7.53244 18.1314 7.38838 18.0285L7.18258 18.3578C7.40896 18.5224 7.71767 18.6047 8.02637 18.6047C8.60263 18.6047 8.93191 18.3372 8.93191 17.9667C8.93191 17.6169 8.66437 17.4316 8.25276 17.3699L8.04695 17.3493C7.86173 17.3287 7.71767 17.2876 7.71767 17.1641C7.71767 17.02 7.86173 16.9377 8.08812 16.9377C8.33508 16.9377 8.58205 17.0406 8.70553 17.1024L8.89075 16.7525ZM20.3746 16.5467C20.1277 16.5467 19.963 16.6702 19.8601 16.8348V16.5878H19.4279V18.5636H19.8601V17.4522C19.8601 17.1229 20.0042 16.9377 20.2717 16.9377C20.3541 16.9377 20.457 16.9583 20.5393 16.9789L20.6628 16.5673C20.5804 16.5467 20.457 16.5467 20.3746 16.5467ZM14.8591 17.5757C14.8591 18.1725 15.2707 18.6047 15.9087 18.6047C16.1968 18.6047 16.4026 18.543 16.6084 18.3783L16.4026 18.0285C16.238 18.152 16.0733 18.2137 15.8881 18.2137C15.5382 18.2137 15.2913 17.9667 15.2913 17.5757C15.2913 17.2053 15.5382 16.9583 15.8881 16.9377C16.0733 16.9377 16.238 16.9994 16.4026 17.1229L16.6084 16.7731C16.4026 16.6084 16.1968 16.5467 15.9087 16.5467C15.2707 16.5467 14.8591 16.9789 14.8591 17.5757ZM18.8517 17.5757V16.5878H18.4195V16.8348C18.2754 16.6496 18.0696 16.5467 17.8021 16.5467C17.2464 16.5467 16.8142 16.9789 16.8142 17.5757C16.8142 18.1725 17.2464 18.6047 17.8021 18.6047C18.0902 18.6047 18.296 18.5018 18.4195 18.3166V18.5636H18.8517V17.5757ZM17.267 17.5757C17.267 17.2258 17.4934 16.9377 17.8638 16.9377C18.2137 16.9377 18.4607 17.2053 18.4607 17.5757C18.4607 17.9256 18.2137 18.2137 17.8638 18.2137C17.4934 18.1931 17.267 17.9256 17.267 17.5757ZM12.1013 16.5467C11.5251 16.5467 11.1134 16.9583 11.1134 17.5757C11.1134 18.1931 11.525 18.6047 12.1219 18.6047C12.41 18.6047 12.6981 18.5224 12.9245 18.3372L12.7187 18.0285C12.5541 18.152 12.3483 18.2343 12.1425 18.2343C11.8749 18.2343 11.6074 18.1108 11.5456 17.7609H13.0068V17.5963C13.0274 16.9583 12.657 16.5467 12.1013 16.5467ZM12.1013 16.9171C12.3688 16.9171 12.5541 17.0818 12.5952 17.3905H11.5662C11.6074 17.1229 11.7926 16.9171 12.1013 16.9171ZM22.8237 17.5757V15.8058H22.3915V16.8348C22.2475 16.6496 22.0417 16.5467 21.7741 16.5467C21.2184 16.5467 20.7862 16.9789 20.7862 17.5757C20.7862 18.1725 21.2184 18.6047 21.7741 18.6047C22.0622 18.6047 22.268 18.5018 22.3915 18.3166V18.5636H22.8237V17.5757ZM21.239 17.5757C21.239 17.2258 21.4654 16.9377 21.8359 16.9377C22.1857 16.9377 22.4327 17.2053 22.4327 17.5757C22.4327 17.9256 22.1857 18.2137 21.8359 18.2137C21.4654 18.1931 21.239 17.9256 21.239 17.5757ZM6.79155 17.5757V16.5878H6.35936V16.8348C6.2153 16.6496 6.00949 16.5467 5.74194 16.5467C5.18627 16.5467 4.75408 16.9789 4.75408 17.5757C4.75408 18.1725 5.18627 18.6047 5.74194 18.6047C6.03007 18.6047 6.23588 18.5018 6.35936 18.3166V18.5636H6.79155V17.5757ZM5.18627 17.5757C5.18627 17.2258 5.41266 16.9377 5.78311 16.9377C6.13297 16.9377 6.37994 17.2053 6.37994 17.5757C6.37994 17.9256 6.13297 18.2137 5.78311 18.2137C5.41266 18.1931 5.18627 17.9256 5.18627 17.5757Z" fill="var(--fill-0, black)"/>
<path id="Vector_2" d="M15.2295 1.5847H8.74669V13.2332H15.2295V1.5847Z" fill="var(--fill-0, #FF5F00)"/>
<path id="Vector_3" d="M9.1583 7.40896C9.1583 5.04221 10.2696 2.94301 11.9778 1.5847C10.7224 0.596835 9.13772 1.82566e-06 7.40896 1.82566e-06C3.31345 1.82566e-06 0 3.31345 0 7.40896C0 11.5045 3.31345 14.8179 7.40896 14.8179C9.13772 14.8179 10.7224 14.2211 11.9778 13.2332C10.2696 11.8955 9.1583 9.77571 9.1583 7.40896Z" fill="var(--fill-0, #EB001B)"/>
<path id="Vector_4" d="M23.9762 7.40896C23.9762 11.5045 20.6628 14.8179 16.5673 14.8179C14.8385 14.8179 13.2538 14.2211 11.9984 13.2332C13.7272 11.8749 14.8179 9.77571 14.8179 7.40896C14.8179 5.04221 13.7066 2.943 11.9984 1.58469C13.2538 0.596833 14.8385 0 16.5673 0C20.6628 0 23.9762 3.33403 23.9762 7.40896Z" fill="var(--fill-0, #F79E1B)"/>
</g>
</svg>
