<svg preserveAspectRatio="none" width="100%" height="100%" overflow="visible" style="display: block;" viewBox="0 0 17.2895 16.813" fill="none" xmlns="http://www.w3.org/2000/svg">
<g id="Group">
<path id="Vector" d="M8.6457 16.813L11.0645 3.52791C13.37 3.52791 14.0972 3.77481 14.2022 4.78258C14.2022 4.78258 15.7488 4.2194 16.5289 3.07559C13.4849 1.69807 10.4264 1.63594 10.4264 1.63594L8.64168 3.75883L8.6457 3.75856L6.86101 1.63561C6.86101 1.63561 3.80243 1.6978 0.758849 3.07533C1.53822 4.21913 3.08544 4.78232 3.08544 4.78232C3.19105 3.77447 3.91738 3.52757 6.20743 3.52598L8.6457 16.813Z" fill="var(--fill-0, white)"/>
<path id="Vector_2" d="M8.64474 1.02276C11.1054 1.00438 13.9218 1.3945 16.8051 2.62174C17.1904 1.94437 17.2895 1.645 17.2895 1.645C14.1377 0.427214 11.1861 0.0104539 8.6444 0C6.10284 0.0104539 3.15137 0.42728 0 1.645C0 1.645 0.140588 2.01375 0.484082 2.62174C3.36675 1.3945 6.1837 1.00438 8.6444 1.02276H8.64474Z" fill="var(--fill-0, white)"/>
</g>
</svg>
