<svg preserveAspectRatio="none" width="100%" height="100%" overflow="visible" style="display: block;" viewBox="0 0 36 24" fill="none" xmlns="http://www.w3.org/2000/svg">
<g id="Meta_Platforms_Inc._logo_(cropped) 1" clip-path="url(#clip0_0_571)">
<path id="Logo0" d="M3.88844 15.8274C3.88844 17.2071 4.19015 18.2664 4.5845 18.9072C5.10154 19.7466 5.87272 20.1022 6.65892 20.1022C7.67297 20.1022 8.60064 19.8496 10.3884 17.368C11.8206 15.3788 13.5081 12.5868 14.6436 10.8364L16.5666 7.87099C17.9024 5.81152 19.4485 3.52209 21.2212 1.97026C22.6684 0.703665 24.2295 0 25.8007 0C28.4384 0 30.951 1.53424 32.874 4.41173C34.9784 7.56314 36 11.5326 36 15.6289C36 18.0641 35.5218 19.8534 34.708 21.267C33.9218 22.6341 32.3895 24 29.8118 24V20.1022C32.0189 20.1022 32.5698 18.0666 32.5698 15.737C32.5698 12.4172 31.7986 8.73298 30.0997 6.10052C28.8941 4.2333 27.3318 3.09236 25.6129 3.09236C23.7538 3.09236 22.2578 4.49969 20.5764 7.009C19.6826 8.3422 18.7649 9.96691 17.7346 11.8002L16.6004 13.817C14.3219 17.8718 13.7448 18.7954 12.6055 20.3196C10.6087 22.9885 8.9036 24 6.65892 24C3.99611 24 2.31228 22.8427 1.26944 21.0986C0.418139 19.6775 0 17.8128 0 15.688L3.88844 15.8274Z" fill="var(--fill-0, #0081FB)"/>
<path id="Logo1" d="M3.06593 4.68691C4.84866 1.9288 7.42134 0 10.3721 0C12.081 0 13.7798 0.507644 15.5538 1.96147C17.4942 3.55099 19.5624 6.16838 22.1426 10.4821L23.0677 12.0302C25.3012 15.7646 26.5718 17.6859 27.3155 18.5918C28.2719 19.7554 28.9417 20.1022 29.8118 20.1022C32.0189 20.1022 32.5698 18.0666 32.5698 15.737L36 15.6289C36 18.0641 35.5218 19.8534 34.708 21.267C33.9218 22.6341 32.3895 24 29.8118 24C28.2093 24 26.7897 23.6507 25.2198 22.1642C24.0129 21.0232 22.602 18.9964 21.5166 17.1744L18.2879 11.7613C16.668 9.04461 15.1819 7.01906 14.3219 6.10178C13.3967 5.11539 12.2074 3.92419 10.3095 3.92419C8.7734 3.92419 7.46891 5.00607 6.37724 6.66094L3.06593 4.68691Z" fill="url(#paint0_linear_0_571)"/>
<path id="Logo2" d="M10.3095 3.92419C8.7734 3.92419 7.46891 5.00607 6.37724 6.66094C4.83363 8.99937 3.88844 12.4825 3.88844 15.8274C3.88844 17.2071 4.19015 18.2664 4.5845 18.9072L1.26944 21.0986C0.418139 19.6775 0 17.8128 0 15.688C0 11.8241 1.05661 7.79686 3.06593 4.68691C4.84866 1.9288 7.42134 0 10.3721 0L10.3095 3.92419Z" fill="url(#paint1_linear_0_571)"/>
</g>
<defs>
<linearGradient id="paint0_linear_0_571" x1="7.63667" y1="14.7016" x2="32.425" y2="15.9489" gradientUnits="userSpaceOnUse">
<stop stop-color="#0064E1"/>
<stop offset="0.4" stop-color="#0064E1"/>
<stop offset="0.83" stop-color="#0073EE"/>
<stop offset="1" stop-color="#0082FB"/>
</linearGradient>
<linearGradient id="paint1_linear_0_571" x1="5.63361" y1="17.466" x2="5.63361" y2="8.29319" gradientUnits="userSpaceOnUse">
<stop stop-color="#0082FB"/>
<stop offset="1" stop-color="#0064E0"/>
</linearGradient>
<clipPath id="clip0_0_571">
<rect width="36" height="24" fill="white"/>
</clipPath>
</defs>
</svg>
