<svg preserveAspectRatio="none" width="100%" height="100%" overflow="visible" style="display: block;" viewBox="0 0 22.8407 23.538" fill="none" xmlns="http://www.w3.org/2000/svg">
<g id="Group">
<path id="Vector" d="M20.0345 19.3764C10.3193 24 4.28997 20.1316 0.430403 17.782C0.191574 17.6339 -0.214351 17.8166 0.137845 18.2211C1.42366 19.7802 5.63755 23.538 11.1379 23.538C16.642 23.538 19.9165 20.5347 20.3261 20.0108C20.7329 19.4913 20.4456 19.2048 20.0344 19.3764H20.0345ZM22.7629 17.8696C22.502 17.5298 21.1765 17.4665 20.3423 17.569C19.5069 17.6685 18.2528 18.1791 18.3618 18.4857C18.4178 18.6006 18.532 18.549 19.1059 18.4974C19.6814 18.44 21.2937 18.2365 21.6296 18.6757C21.9672 19.1179 21.1154 21.2244 20.9599 21.5642C20.8096 21.9039 21.0173 21.9915 21.2996 21.7652C21.578 21.5391 22.0821 20.9533 22.4203 20.1244C22.7563 19.2909 22.9612 18.1283 22.7629 17.8696Z" fill="var(--fill-0, #FF9900)"/>
<path id="Vector_2" fill-rule="evenodd" clip-rule="evenodd" d="M13.5021 9.94198C13.5021 11.1551 13.5327 12.1669 12.9196 13.2442C12.4246 14.1202 11.6407 14.6589 10.7647 14.6589C9.56903 14.6589 8.87267 13.7479 8.87267 12.4034C8.87267 9.74922 11.2508 9.2675 13.5021 9.2675V9.94198ZM16.6423 17.5321C16.4364 17.716 16.1386 17.7292 15.9065 17.6065C14.8729 16.7481 14.6889 16.3495 14.1196 15.5305C12.4115 17.2737 11.2027 17.7948 8.98659 17.7948C6.36751 17.7948 4.32653 16.1787 4.32653 12.9421C4.32653 10.415 5.69746 8.69374 7.64631 7.85291C9.33694 7.10826 11.6976 6.97689 13.5021 6.77111V6.36814C13.5021 5.62793 13.559 4.75201 13.1254 4.11261C12.7443 3.53885 12.0173 3.30233 11.3778 3.30233C10.191 3.30233 9.13107 3.91108 8.87267 5.17243C8.82005 5.4528 8.61427 5.72874 8.33399 5.74185L5.31194 5.41782C5.05797 5.36076 4.77769 5.15498 4.84776 4.76512C5.54412 1.10376 8.8507 0 11.8114 0C13.3268 0 15.3064 0.402971 16.5021 1.55049C18.0175 2.96509 17.8729 4.85273 17.8729 6.90682V11.7596C17.8729 13.218 18.4773 13.8574 19.0467 14.6458C19.2481 14.9261 19.2919 15.2634 19.0379 15.4735C18.4028 16.0034 17.2728 16.9889 16.651 17.5408L16.6422 17.5321" fill="var(--fill-0, white)"/>
<path id="Vector_3" d="M20.0345 19.3764C10.3193 24 4.28997 20.1316 0.430403 17.782C0.191574 17.6339 -0.214351 17.8166 0.137845 18.2211C1.42366 19.7802 5.63755 23.538 11.1379 23.538C16.642 23.538 19.9165 20.5347 20.3261 20.0108C20.7329 19.4913 20.4456 19.2048 20.0344 19.3764H20.0345ZM22.7629 17.8696C22.502 17.5298 21.1765 17.4665 20.3423 17.569C19.5069 17.6685 18.2528 18.1791 18.3618 18.4857C18.4178 18.6006 18.532 18.549 19.1059 18.4974C19.6814 18.44 21.2937 18.2365 21.6296 18.6757C21.9672 19.1179 21.1154 21.2244 20.9599 21.5642C20.8096 21.9039 21.0173 21.9915 21.2996 21.7652C21.578 21.5391 22.0821 20.9533 22.4203 20.1244C22.7563 19.2909 22.9612 18.1283 22.7629 17.8696Z" fill="var(--fill-0, #FF9900)"/>
<path id="Vector_4" fill-rule="evenodd" clip-rule="evenodd" d="M13.5021 9.94198C13.5021 11.1551 13.5327 12.1669 12.9196 13.2442C12.4246 14.1202 11.6407 14.6589 10.7647 14.6589C9.56903 14.6589 8.87267 13.7479 8.87267 12.4034C8.87267 9.74922 11.2508 9.2675 13.5021 9.2675V9.94198ZM16.6423 17.5321C16.4364 17.716 16.1386 17.7292 15.9065 17.6065C14.8729 16.7481 14.6889 16.3495 14.1196 15.5305C12.4115 17.2737 11.2027 17.7948 8.98659 17.7948C6.36751 17.7948 4.32653 16.1787 4.32653 12.9421C4.32653 10.415 5.69746 8.69374 7.64631 7.85291C9.33694 7.10826 11.6976 6.97689 13.5021 6.77111V6.36814C13.5021 5.62793 13.559 4.75201 13.1254 4.11261C12.7443 3.53885 12.0173 3.30233 11.3778 3.30233C10.191 3.30233 9.13107 3.91108 8.87267 5.17243C8.82005 5.4528 8.61427 5.72874 8.33399 5.74185L5.31194 5.41782C5.05797 5.36076 4.77769 5.15498 4.84776 4.76512C5.54412 1.10376 8.8507 0 11.8114 0C13.3268 0 15.3064 0.402971 16.5021 1.55049C18.0175 2.96509 17.8729 4.85273 17.8729 6.90682V11.7596C17.8729 13.218 18.4773 13.8574 19.0467 14.6458C19.2481 14.9261 19.2919 15.2634 19.0379 15.4735C18.4028 16.0034 17.2728 16.9889 16.651 17.5408L16.6422 17.5321" fill="var(--fill-0, white)"/>
</g>
</svg>
