<svg preserveAspectRatio="none" width="100%" height="100%" overflow="visible" style="display: block;" viewBox="0 0 106 40" fill="none" xmlns="http://www.w3.org/2000/svg">
<g id="logos">
<path id="Vector" d="M22.408 9.67157C22.3025 9.67157 20.2136 9.62943 20.2136 9.62943C20.2136 9.62943 18.4624 7.94411 18.2936 7.75451C18.2303 7.69131 18.1459 7.64918 18.0615 7.64918V33.54L25.8895 31.6019C25.8895 31.6019 22.7034 10.0508 22.6823 9.9033C22.6401 9.75583 22.5135 9.67157 22.408 9.67157Z" fill="var(--fill-0, white)"/>
<path id="Subtract" d="M11.542 4.27837C12.2802 4.25741 12.8918 4.51027 13.377 5.01567C13.4191 5.03672 13.4403 5.07904 13.4824 5.12114C13.5668 5.10007 13.6304 5.09966 13.7148 5.09966C14.812 5.09966 15.7406 5.73243 16.3525 6.91216C16.5423 7.29118 16.6901 7.64958 16.7744 7.94438C17.3141 7.77858 17.6494 7.67331 17.6602 7.66997C17.7868 7.62784 18.1251 7.58542 18.2939 7.75395C18.4628 7.94365 20.2139 9.62895 20.2139 9.62895C20.243 9.62954 22.3035 9.67095 22.4082 9.67095C22.5136 9.6711 22.6401 9.75603 22.6611 9.90337C22.6853 10.0719 25.8686 31.6016 25.8896 31.6016L18.0615 33.5401L0 30.4219C0.00388838 30.3919 2.15123 13.8075 2.19434 13.211C2.29982 12.4316 2.32095 12.41 3.14355 12.1573C3.18575 12.1573 4.32555 11.7996 5.9502 11.294C6.14009 10.0511 6.75192 8.44917 7.55371 7.16411C8.71416 5.35255 10.1284 4.3205 11.542 4.27837ZM13.7148 13.6954C13.7048 13.6903 12.9246 13.2959 11.3945 13.4004C7.42778 13.6532 5.63394 16.4128 5.80273 19.1514C6.01386 22.4165 9.26305 22.2903 9.38965 24.2706C9.43174 24.7339 9.11542 25.4284 8.29297 25.4707C7.02698 25.555 5.42285 24.3545 5.42285 24.3545L4.81152 26.9454C4.81152 26.9454 6.3934 28.6307 9.2627 28.4834C11.6681 28.336 13.3143 26.4191 13.1455 23.6172C12.9134 20.0571 8.92581 19.72 8.82031 18.2032C8.82031 17.9293 8.82046 16.8124 10.5928 16.7071C11.788 16.6235 12.7954 17.0814 12.8076 17.087L13.7148 13.6954ZM11.584 5.22661C9.41071 5.28981 7.49077 8.70281 6.98438 10.9991C7.74391 10.7674 8.58811 10.5141 9.45312 10.2403C9.72742 8.78669 10.4228 7.2904 11.3301 6.32134C11.6677 5.94215 12.0479 5.64765 12.4277 5.45805C12.1957 5.28957 11.9215 5.22664 11.584 5.22661ZM13.04 6.19536C12.6391 6.36389 12.2796 6.6588 12.0264 6.93266C11.3513 7.66995 10.8032 8.76552 10.5078 9.88188C11.5416 9.5659 12.576 9.25004 13.5254 8.95512C13.5465 8.1757 13.462 7.01694 13.04 6.19536ZM14.0527 6.11137C14.3691 6.95398 14.4746 7.96551 14.4746 8.68169C14.981 8.51316 15.4452 8.3657 15.8672 8.2393C15.6562 7.50205 15.1286 6.28011 14.0527 6.11137Z" fill="var(--fill-0, white)"/>
<g id="Vector_2">
<path d="M36.4816 20.9211C35.5743 20.4366 35.1102 20.0152 35.1102 19.4464C35.1102 18.7302 35.7642 18.2667 36.777 18.2667C37.9586 18.2667 39.0136 18.7512 39.0136 18.7512L39.8365 16.2233C39.8365 16.2233 39.0769 15.6334 36.8403 15.6334C33.7176 15.6334 31.5443 17.424 31.5443 19.931C31.5443 21.3635 32.5571 22.4379 33.9075 23.2173C35.0047 23.8283 35.3845 24.2707 35.3845 24.9237C35.3845 25.5979 34.8359 26.1456 33.8231 26.1456C32.325 26.1456 30.8902 25.3661 30.8902 25.3661L30.004 27.8941C30.004 27.8941 31.3122 28.7789 33.5277 28.7789C36.7348 28.7789 39.0558 27.1989 39.0558 24.3549C39.0347 22.8171 37.8742 21.7216 36.4816 20.9211Z" fill="white"/>
<path d="M49.2681 15.5914C47.6857 15.5914 46.4408 16.3498 45.4913 17.4874L45.4491 17.4664L46.8206 10.3037H43.2547L39.7733 28.5474H43.3391L44.5207 22.3117C44.9849 19.9522 46.2087 18.4986 47.3481 18.4986C48.1499 18.4986 48.4664 19.0464 48.4664 19.8258C48.4664 20.3103 48.4242 20.9213 48.3187 21.4058L46.9683 28.5474H50.5341L51.9267 21.1741C52.0744 20.3946 52.1799 19.4677 52.1799 18.8357C52.201 16.8133 51.146 15.5914 49.2681 15.5914Z" fill="white"/>
<path d="M60.2819 15.5911C55.9776 15.5911 53.1291 19.4674 53.1291 23.786C53.1291 26.5457 54.8382 28.7788 58.0453 28.7788C62.2653 28.7788 65.1137 25.0079 65.1137 20.5839C65.1348 18.0348 63.6368 15.5911 60.2819 15.5911ZM58.5306 26.0612C57.3068 26.0612 56.8005 25.0289 56.8005 23.7228C56.8005 21.6794 57.8554 18.3508 59.7966 18.3508C61.0626 18.3508 61.4846 19.4463 61.4846 20.4996C61.4846 22.6906 60.4085 26.0612 58.5306 26.0612Z" fill="white"/>
<path d="M74.2715 15.5911C71.8661 15.5911 70.4947 17.7188 70.4947 17.7188H70.4525L70.6635 15.8018H67.4985C67.3508 17.0869 67.0554 19.0671 66.7811 20.5418L64.2913 33.603H67.8572L68.8489 28.3153H68.9333C68.9333 28.3153 69.6718 28.7788 71.0222 28.7788C75.221 28.7788 77.964 24.4812 77.964 20.1415C77.964 17.7399 76.8879 15.5911 74.2715 15.5911ZM70.8534 26.1033C69.925 26.1033 69.3764 25.5767 69.3764 25.5767L69.9672 22.2482C70.3892 20.0151 71.5496 18.5404 72.7945 18.5404C73.8917 18.5404 74.2293 19.5516 74.2293 20.4996C74.2293 22.817 72.8578 26.1033 70.8534 26.1033Z" fill="white"/>
<path d="M83.0695 10.4722C81.9301 10.4722 81.0228 11.378 81.0228 12.5367C81.0228 13.59 81.698 14.3274 82.7108 14.3274H82.753C83.8713 14.3274 84.8208 13.569 84.8419 12.2628C84.8419 11.2306 84.1456 10.4722 83.0695 10.4722Z" fill="white"/>
<path d="M78.0691 28.5261H81.6349L84.0614 15.8862H80.4744L78.0691 28.5261Z" fill="white"/>
<path d="M93.1552 15.8653H90.6654L90.792 15.2755C91.003 14.0536 91.7204 12.9792 92.9231 12.9792C93.5561 12.9792 94.0625 13.1688 94.0625 13.1688L94.7588 10.3669C94.7588 10.3669 94.1469 10.0509 92.8176 10.0509C91.5516 10.0509 90.2856 10.4091 89.315 11.2307C88.0912 12.2629 87.5215 13.7587 87.2472 15.2755L87.1417 15.8653H85.4749L84.9474 18.5618H86.6142L84.7153 28.5474H88.2811L90.1801 18.5618H92.6488L93.1552 15.8653Z" fill="white"/>
<path d="M101.764 15.8862C101.764 15.8862 99.5271 21.5109 98.5354 24.5867H98.4932C98.4299 23.5965 97.607 15.8862 97.607 15.8862H93.8513L96.0035 27.4938C96.0457 27.7466 96.0246 27.9152 95.9191 28.0837C95.4971 28.8842 94.8008 29.6637 93.9779 30.2325C93.3027 30.717 92.5431 31.033 91.9523 31.2437L92.944 34.2773C93.6614 34.1298 95.1806 33.5189 96.4465 32.3392C98.0712 30.8224 99.5904 28.4629 101.131 25.2608L105.498 15.8862H101.764Z" fill="white"/>
</g>
</g>
</svg>
