<svg preserveAspectRatio="none" width="100%" height="100%" overflow="visible" style="display: block;" viewBox="0 0 113 40" fill="none" xmlns="http://www.w3.org/2000/svg">
<g id="logos">
<g id="Vector">
<path d="M0 1.66667H24.3935V13.8094H12.1967L0 1.66667ZM0 13.8094H12.1967L24.3935 25.9522H0V13.8094ZM0 25.9522H12.1967V38.095L0 25.9522Z" fill="white"/>
<path d="M38.1571 11.2461H48.0174V14.3656H41.8892V18.7006H48.0174V21.7511H41.8892V27.3017H38.1571V11.2461ZM50.0447 16.2461H53.5698V18.5628C53.7539 17.7667 54.1306 17.1556 54.6986 16.7278C55.2812 16.2839 55.928 16.0628 56.6339 16.0628C57.0027 16.0628 57.3102 16.0939 57.5552 16.1545V19.4117C57.2036 19.3695 56.8498 19.3467 56.4955 19.3428C55.5279 19.3428 54.7991 19.6556 54.3069 20.2828C53.8164 20.8945 53.5698 21.8117 53.5698 23.0356V27.3017H50.0464V16.2461H50.0447ZM63.1198 27.6C62.045 27.6 61.1076 27.3472 60.309 26.8428C59.5256 26.3384 58.9028 25.6222 58.5122 24.7784C58.0976 23.8922 57.8889 22.8895 57.8889 21.7739C57.8889 20.6728 58.1054 19.6784 58.5351 18.7922C58.938 17.9361 59.5774 17.2122 60.3782 16.705C61.1913 16.2006 62.1209 15.9478 63.1661 15.9478C63.949 15.9478 64.6488 16.1167 65.2626 16.4528C65.8764 16.79 66.3374 17.2489 66.6448 17.8289V16.2461H70.1464V27.3017H66.6448V25.7417C66.3374 26.2922 65.8614 26.7428 65.2163 27.095C64.5712 27.4356 63.8502 27.6089 63.1198 27.6ZM64.1337 24.6867C64.978 24.6867 65.6309 24.4117 66.0918 23.8611C66.5528 23.3106 66.7832 22.6145 66.7832 21.7739C66.7832 20.9484 66.5528 20.26 66.0918 19.7095C65.6309 19.1589 64.978 18.8839 64.1337 18.8839C63.3341 18.8839 62.6901 19.1511 62.1985 19.6867C61.7225 20.2222 61.4842 20.9172 61.4842 21.7739C61.4842 22.6306 61.7225 23.3334 62.1985 23.8839C62.6901 24.4195 63.3352 24.6867 64.1337 24.6867ZM72.6118 16.2461H76.1368V17.8517C76.3835 17.285 76.7819 16.8261 77.3343 16.4756C77.9035 16.125 78.5637 15.9478 79.3159 15.9478C81.067 15.9478 82.2271 16.6278 82.7946 17.9895C83.1071 17.3722 83.5959 16.8617 84.2003 16.5217C84.8465 16.1345 85.5887 15.9361 86.3425 15.9478C88.9692 15.9478 90.2822 17.4456 90.2822 20.4434V27.3017H86.7343V21.0856C86.7343 20.3372 86.5959 19.7867 86.3197 19.4345C86.0429 19.0834 85.6283 18.9067 85.0753 18.9067C84.4765 18.9067 84.0156 19.1134 83.693 19.5261C83.3705 19.9239 83.2092 20.6189 83.2092 21.6134V27.3017H79.6613V21.0628C79.6613 20.3139 79.5235 19.7706 79.2467 19.4345C78.9867 19.0834 78.5787 18.9067 78.0269 18.9067C77.4119 18.9067 76.9432 19.1134 76.6206 19.5261C76.2981 19.9239 76.1368 20.6189 76.1368 21.6134V27.3017H72.6129V16.2461H72.6118ZM103.524 21.2006C103.524 21.6739 103.493 22.1867 103.43 22.7372H95.2302C95.2615 23.4561 95.5064 24.0056 95.9674 24.3889C96.4283 24.7706 97.0516 24.9622 97.8334 24.9622C98.9243 24.9622 99.6157 24.6328 99.907 23.9756H103.363C103.193 25.0617 102.594 25.94 101.565 26.6134C100.552 27.2706 99.3077 27.6 97.8334 27.6C95.9294 27.6 94.4317 27.0872 93.3407 26.0628C92.266 25.0378 91.728 23.6089 91.728 21.7739C91.728 20.5811 91.9736 19.5489 92.4652 18.6772C92.9401 17.8067 93.6722 17.1022 94.5617 16.6589C95.4685 16.1856 96.5204 15.9478 97.7196 15.9478C98.8551 15.9478 99.8607 16.1695 100.736 16.6134C101.627 17.0572 102.311 17.6761 102.786 18.4711C103.279 19.2672 103.524 20.1767 103.524 21.2006ZM100.044 20.5584C100.029 19.8245 99.8216 19.2656 99.4215 18.8839C99.0231 18.5022 98.4461 18.3106 97.6939 18.3106C96.9417 18.3106 96.3429 18.5167 95.897 18.93C95.4674 19.3278 95.2447 19.87 95.2285 20.5584H100.044ZM105.078 16.2461H108.603V18.5628C108.787 17.7667 109.164 17.1556 109.732 16.7278C110.283 16.2956 110.965 16.0611 111.667 16.0628C112.036 16.0628 112.344 16.0939 112.589 16.1545V19.4117C112.237 19.3695 111.883 19.3467 111.529 19.3428C110.561 19.3428 109.833 19.6556 109.34 20.2828C108.848 20.8945 108.603 21.8117 108.603 23.0356V27.3017H105.078V16.2461Z" fill="white"/>
</g>
</g>
</svg>
