<svg preserveAspectRatio="none" width="100%" height="100%" overflow="visible" style="display: block;" viewBox="0 0 113 40" fill="none" xmlns="http://www.w3.org/2000/svg">
<g id="logos">
<path id="Vector" d="M22.6971 13.917C18.6118 13.917 15.4196 17.0045 15.4196 21.1378C15.4196 25.2712 18.5311 28.3323 22.6971 28.3323C26.8631 28.3323 30.0287 25.2183 30.0287 21.1114C30.0287 17.0309 26.9172 13.917 22.6971 13.917ZM22.7247 25.3535C20.3982 25.3535 18.6934 23.5546 18.6934 21.1389C18.6934 18.6956 20.3706 16.8978 22.6971 16.8978C25.0511 16.8978 26.7549 18.7231 26.7549 21.1389C26.7549 23.5546 25.0511 25.3535 22.7247 25.3535ZM30.9209 17.0584H32.9502V28.065H36.1964V14.1853H30.9209V17.0584ZM7.24992 16.8968C8.95471 16.8968 10.3073 17.9436 10.8208 19.5006H14.2569C13.6342 16.1721 10.8749 13.917 7.27748 13.917C3.19212 13.917 0 17.0045 0 21.1389C0 25.2732 3.11149 28.3333 7.27748 28.3333C10.7942 28.3333 13.6076 26.0781 14.2303 22.7223H10.8208C10.3338 24.2793 8.98124 25.3535 7.27648 25.3535C4.92244 25.3535 3.27276 23.5546 3.27276 21.1389C3.2738 18.6956 4.89692 16.8968 7.24992 16.8968ZM92.6013 19.7963L90.2207 19.4477C89.0848 19.2871 88.2731 18.9111 88.2731 18.0249C88.2731 17.0584 89.3287 16.5756 90.7619 16.5756C92.331 16.5756 93.3323 17.2464 93.5486 18.3471H96.6869C96.3347 15.5552 94.1704 13.918 90.8435 13.918C87.4074 13.918 85.1351 15.663 85.1351 18.1326C85.1351 20.4945 86.6233 21.8645 89.6256 22.2934L92.0062 22.642C93.17 22.8026 93.8192 23.2599 93.8192 24.1187C93.8192 25.2194 92.6832 25.6757 91.1141 25.6757C89.1928 25.6757 88.1108 24.8972 87.9485 23.7162H84.7563C85.0544 26.4277 87.1911 28.3333 91.0865 28.3333C94.6309 28.3333 96.9838 26.7225 96.9838 23.9571C96.9838 21.4875 95.28 20.1988 92.6013 19.7963ZM34.5733 8.46749C33.383 8.46749 32.49 9.32627 32.49 10.5072C32.49 11.6882 33.3821 12.547 34.5733 12.547C35.7635 12.547 36.6569 11.6882 36.6569 10.5072C36.6569 9.32627 35.7635 8.46749 34.5733 8.46749ZM82.2134 18.9375C82.2134 15.9313 80.3741 13.918 76.4784 13.918C72.7993 13.918 70.7433 15.7707 70.3371 18.6164H73.5567C73.719 17.5157 74.5847 16.6031 76.4244 16.6031C78.0751 16.6031 78.8865 17.3277 78.8865 18.2139C78.8865 19.3685 77.3981 19.6632 75.5587 19.8512C73.0699 20.1195 69.9859 20.9783 69.9859 24.2C69.9859 26.6971 71.8529 28.3069 74.8289 28.3069C77.1551 28.3069 78.616 27.3404 79.347 25.8098C79.4553 27.1788 80.4833 28.065 81.9175 28.065H83.8111V25.1929H82.2144V18.9375H82.2134ZM79.0212 22.4276C79.0212 24.2803 77.3981 25.6492 75.4228 25.6492C74.2052 25.6492 73.1772 25.1391 73.1772 24.0658C73.1772 22.6969 74.8276 22.3208 76.3428 22.1603C77.8036 22.0261 78.615 21.7039 79.0212 21.086V22.4276ZM61.7887 13.917C59.9757 13.917 58.4609 14.669 57.3789 15.9303V8.33333H54.1326V28.065H57.3246V26.2397C58.4065 27.5548 59.9493 28.3333 61.7887 28.3333C65.6841 28.3333 68.6334 25.2732 68.6334 21.1389C68.6334 17.0045 65.6301 13.917 61.7887 13.917ZM61.3019 25.3535C58.9753 25.3535 57.2706 23.5546 57.2706 21.1389C57.2706 18.7231 59.002 16.8978 61.3282 16.8978C63.6824 16.8978 65.3319 18.6967 65.3319 21.1389C65.3319 23.5546 63.6281 25.3535 61.3019 25.3535ZM46.368 13.917C44.258 13.917 42.8778 14.7757 42.0664 15.9841V14.1853H38.8466V28.064H42.0928V20.521C42.0928 18.3999 43.4453 16.8968 45.4473 16.8968C47.3143 16.8968 48.477 18.2119 48.477 20.1185V28.065H51.7232V19.8776C51.7245 16.3866 49.9124 13.917 46.368 13.917ZM112.459 20.6826C112.459 16.7098 109.537 13.918 105.614 13.918C101.448 13.918 98.3906 17.032 98.3906 21.1389C98.3906 25.4612 101.664 28.3333 105.668 28.3333C109.05 28.3333 111.701 26.3465 112.377 23.5282H108.995C108.508 24.763 107.318 25.4612 105.721 25.4612C103.638 25.4612 102.068 24.1726 101.717 21.9174H112.458V20.6826H112.459ZM101.907 19.6083C102.422 17.6753 103.882 16.7362 105.56 16.7362C107.399 16.7362 108.806 17.783 109.131 19.6083H101.907Z" fill="var(--fill-0, white)"/>
</g>
</svg>
