<svg preserveAspectRatio="none" width="100%" height="100%" overflow="visible" style="display: block;" viewBox="0 0 74 24" fill="none" xmlns="http://www.w3.org/2000/svg">
<path id="Vector" d="M68.5178 23.6536L67.8241 20.1742H60.0726L58.8392 23.6289L52.6263 23.6412C56.6193 14.0134 59.5854 6.88454 61.5187 2.24845C62.0243 1.03608 62.9216 0.417527 64.2443 0.426806C65.2557 0.436084 66.9052 0.436082 69.1962 0.429897L74 23.6443L68.5178 23.6536ZM61.8147 15.4082H66.8128L64.9473 6.6866L61.8147 15.4082ZM21.7745 0.423712L28.0213 0.429897L18.3643 23.6567L12.0404 23.6505C10.4502 17.5154 8.87974 11.3752 7.32908 5.2299C7.02075 4.00515 6.41025 3.14845 5.2355 2.7433C3.49816 2.16121 1.75283 1.60342 0 1.0701L0 0.429897H9.98075C11.7074 0.429897 12.7157 1.26804 13.0394 2.98763C13.3662 4.71031 14.1864 9.09897 15.5061 16.1443L21.7745 0.423712ZM36.6053 0.429897L31.6689 23.6536L25.7212 23.6443L30.6483 0.423712L36.6053 0.429897ZM48.6612 0C50.4402 0 52.6818 0.5567 53.9707 1.0701L52.9285 5.88248C51.763 5.41237 49.8452 4.77835 48.2326 4.8C45.8892 4.84021 44.4401 5.82681 44.4401 6.7732C44.4401 8.3134 46.9561 9.08969 49.5461 10.7722C52.4999 12.6897 52.8915 14.4124 52.8545 16.2866C52.8144 20.168 49.5461 24 42.6517 24C39.5067 23.9536 38.3721 23.6907 35.8067 22.7753L36.8921 17.7526C39.5037 18.8474 40.6106 19.1969 42.8429 19.1969C44.8872 19.1969 46.6416 18.368 46.657 16.9237C46.6693 15.8969 46.0403 15.3866 43.7463 14.1186C41.4523 12.8474 38.2333 11.0907 38.2765 7.55567C38.3289 3.03402 42.5993 0 48.6612 0Z" fill="var(--fill-0, white)"/>
</svg>
