<svg preserveAspectRatio="none" width="100%" height="100%" overflow="visible" style="display: block;" viewBox="0 0 123 40" fill="none" xmlns="http://www.w3.org/2000/svg">
<g id="logos">
<g id="Vector">
<path d="M72.7781 12.5003C70.2597 12.5003 67.7977 14.7871 67.5146 18.0913V12.7727H63.8979V28.8098H67.5589V21.0472C67.5589 18.8727 69.096 15.8053 72.7781 15.8053V12.5003Z" fill="white"/>
<path d="M111.181 26.2424V15.2551H113.301C116.129 15.2551 118.427 17.0272 118.427 20.6601C118.427 24.293 116.129 26.2424 113.301 26.2424H111.181ZM107.557 28.812H113.744C117.543 28.812 122.227 26.331 122.227 20.6601C122.227 15.0778 117.543 12.774 113.744 12.774H107.557V28.812Z" fill="white"/>
<path d="M93.6945 20.8375C93.6945 17.9135 95.1967 15.5211 97.6709 15.5211C100.057 15.5211 101.382 17.9135 101.382 20.8375C101.382 23.7616 100.057 26.154 97.6709 26.154C95.1967 26.154 93.6945 23.7616 93.6945 20.8375ZM89.983 21.0147C89.983 25.7996 92.4572 29.1667 96.3454 29.1667C99.1731 29.1667 100.852 27.3059 101.736 24.2932V28.8122H105.358V12.7742H101.736V17.0274C100.941 14.192 99.2617 12.5084 96.6108 12.5084C92.6339 12.5084 89.983 16.1413 89.983 21.0147Z" fill="white"/>
<path d="M7.47841 29.1667C2.97162 29.1667 0.320583 25.5337 0.320583 21.0147C0.320583 16.3185 3.23673 12.5084 8.80391 12.5084C14.5479 12.5084 16.492 16.4071 16.5803 18.6223H12.427C12.3386 17.3818 11.2782 15.5211 8.71553 15.5211C5.97614 15.5211 4.20878 17.9135 4.20878 20.8375C4.20878 23.7616 5.97614 26.154 8.71553 26.154C11.1898 26.154 12.2503 24.2046 12.6921 22.2553H8.71553V20.6603H17.0597V28.8122H13.3991V23.673C13.134 25.5337 11.9852 29.1667 7.47841 29.1667Z" fill="white"/>
<path d="M24.4819 29.1665C21.0355 29.1665 18.9147 26.8626 18.9147 22.2551V12.774H22.6261V22.2551C22.6261 24.6474 23.7749 25.7994 25.719 25.7994C29.5189 25.7994 30.9328 21.1031 30.9328 17.8247V12.774H34.6442V28.812H31.0211V22.8753C30.3142 26.1538 28.3701 29.1665 24.4819 29.1665Z" fill="white"/>
<path d="M56.8229 12.5C53.6563 12.5 51.6588 15.5671 51.0067 18.4031C50.8952 14.6026 49.0314 12.5 46.049 12.5C43.4724 12.5 41.082 14.804 40.4611 18.449V12.7728H36.8431V28.8112H40.5075V23.0615C40.5075 21.6361 41.1001 15.7865 44.789 15.7865C47.1787 15.7865 47.4278 17.9478 47.4278 20.9023V28.8112H51.0905V23.0615C51.0905 21.6361 51.7077 15.7865 55.3965 15.7865C57.7843 15.7865 58.0308 17.9478 58.0308 20.9023V28.8112H61.6985V19.3246C61.7152 14.7735 60.1127 12.5 56.8229 12.5Z" fill="white"/>
<path d="M80.6399 12.5C75.8961 12.5 72.6817 16.2298 72.6817 20.8333C72.6817 25.9058 75.7388 29.1665 80.6399 29.1665C85.3837 29.1665 88.6553 25.4369 88.6553 20.8333C88.6553 15.7609 85.5389 12.5 80.6399 12.5ZM80.6399 26.3277C77.8782 26.3277 76.0895 23.9833 76.0895 20.8333C76.0895 17.6833 77.8843 15.3388 80.6399 15.3388C83.395 15.3388 85.1183 17.6833 85.1183 20.8333C85.1183 23.9833 83.3934 26.3277 80.6399 26.3277Z" fill="white"/>
</g>
</g>
</svg>
