<svg preserveAspectRatio="none" width="100%" height="100%" overflow="visible" style="display: block;" viewBox="0 0 96.5403 24.1667" fill="none" xmlns="http://www.w3.org/2000/svg">
<path id="Vector" d="M31.1457 9.50632C31.1457 7.78831 29.4218 5.95577 26.5486 5.95577C23.3306 5.95577 19.6528 8.36098 19.0782 13.1714C18.5036 17.9818 21.4917 20.158 24.5948 20.158C27.6979 20.158 29.1919 19.0126 30.8009 17.4092C29.4218 15.6912 27.5829 16.4929 27.2382 16.6074C26.8934 16.8365 26.3187 17.0656 25.3993 17.0656C24.25 17.0656 22.9858 16.4929 22.9858 14.3167C30.5711 13.515 31.1457 11.2243 31.1457 9.50632ZM27.468 9.73539C27.468 10.3081 27.2381 11.2243 23.4455 11.6825C24.25 8.81911 25.7441 8.59005 26.4336 8.59005C27.1232 8.70458 27.468 9.16272 27.468 9.73539ZM14.7109 10.1935C14.7109 10.1935 13.1019 15.233 12.987 15.6912C12.987 15.233 11.7227 6.18483 11.7227 6.18483C8.96445 6.18483 7.47038 8.13191 6.78081 10.1935C6.78081 10.1935 4.82701 15.233 4.71209 15.6912C4.59716 15.3476 4.3673 10.3081 4.3673 10.3081C4.13744 7.78831 1.83886 6.18483 0 6.18483L2.29858 19.9289C5.1718 19.9289 6.78081 17.9818 7.58531 15.9202C7.58531 15.9202 9.30924 11.4534 9.42417 11.2243C9.42417 11.4534 10.6884 19.9289 10.6884 19.9289C13.5616 19.9289 15.1706 18.0964 15.9751 16.1493L19.9976 6.18483C17.0095 6.18483 15.5154 8.13191 14.7109 10.1935ZM41.8341 5.84123C40.1102 5.84123 38.731 6.7575 37.5818 8.24645L38.5012 0C36.0877 0 34.2488 2.06161 33.7891 5.03949L31.9502 19.8144C33.3294 19.8144 34.7085 19.4708 35.513 18.44C36.2026 19.3562 37.237 20.0434 38.731 20.0434C42.7536 20.0434 45.5118 15.4621 45.5118 11.1098C45.6268 7.10111 43.673 5.84123 41.8341 5.84123ZM41.3744 12.9423C40.9147 15.3476 39.6505 16.951 38.2713 16.951C37.0071 16.951 36.4325 16.3784 36.4325 16.3784C36.6623 14.3167 36.8922 12.9423 37.3519 11.797C37.8116 10.6517 38.9609 8.93365 40.1102 8.93365C41.2595 9.04818 41.8341 10.5371 41.3744 12.9423ZM55.6256 6.18483H52.8673V6.0703C53.0972 4.23776 53.4419 3.32148 54.936 3.20695C55.8554 3.09242 56.3152 2.63428 56.4301 2.06161C56.545 1.60348 56.7749 0.114534 56.7749 0.114534C51.1434 0.114534 49.4194 2.51975 48.9597 6.18483V6.29937H48.8448C47.9254 6.29937 46.891 7.33017 46.7761 8.59005L46.6611 9.04818H48.5L46.891 21.876L46.4313 24.1667C46.5462 24.1667 46.5462 24.1667 46.6611 24.1667C49.3045 24.0521 50.9135 21.9905 51.3732 19.0126L52.6374 8.93365H53.5569C54.3614 8.93365 55.3957 8.13191 55.6256 6.64297V6.18483ZM70.1066 5.95577C66.8886 5.95577 63.9005 8.36098 62.981 12.0261C62.0616 15.6912 63.4408 20.158 68.1528 20.158C72.8649 20.158 75.6232 15.5766 75.6232 11.797C75.5083 8.01738 72.9799 5.95577 70.1066 5.95577ZM71.3708 12.8278C71.2559 14.5458 70.4514 17.0656 68.3827 17.0656C66.314 17.0656 66.6588 14.0877 66.7737 12.7133C67.0036 11.2243 67.8081 9.04818 69.6469 9.04818C71.3709 9.04818 71.6007 10.9953 71.3708 12.8278ZM91.4834 10.1935C91.4834 10.1935 89.8744 15.233 89.7595 15.6912C89.7595 15.233 88.4953 6.18483 88.4953 6.18483C85.737 6.18483 84.2429 8.13191 83.5533 10.1935C83.5533 10.1935 81.5995 15.233 81.4846 15.6912C81.4846 15.3476 81.1398 10.3081 81.1398 10.3081C81.0249 7.78831 78.6114 6.29937 76.7725 6.29937L79.0711 20.0434C81.9443 20.0434 83.5533 18.0964 84.3578 16.0348C84.3578 16.0348 86.0817 11.5679 86.1967 11.3389C86.1967 11.5679 87.4609 20.0434 87.4609 20.0434C90.3341 20.0434 91.9431 18.2109 92.7476 16.2638L96.5403 6.18483C93.6671 6.18483 92.173 8.13191 91.4834 10.1935ZM58.269 0.114534L55.9704 18.8981L55.5107 21.1888C55.6256 21.1888 55.6256 21.1888 55.7405 21.1888C58.269 21.1888 60.1078 18.8981 60.3377 16.1493L61.7168 5.3831C62.0616 2.17615 59.9929 0.114534 58.269 0.114534Z" fill="var(--fill-0, white)"/>
</svg>
