<svg preserveAspectRatio="none" width="100%" height="100%" overflow="visible" style="display: block;" viewBox="0 0 16 16" fill="none" xmlns="http://www.w3.org/2000/svg">
<g id="Frame">
<path id="Vector" d="M14.6431 7.17812L11.8306 9.605L12.6875 13.2344C12.7348 13.4314 12.7226 13.638 12.6525 13.8281C12.5824 14.0182 12.4576 14.1833 12.2937 14.3025C12.1299 14.4217 11.9344 14.4896 11.7319 14.4977C11.5294 14.5058 11.3291 14.4538 11.1562 14.3481L8 12.4056L4.84188 14.3481C4.66902 14.4532 4.46894 14.5047 4.26684 14.4963C4.06473 14.4879 3.86964 14.4199 3.70613 14.3008C3.54261 14.1817 3.41799 14.0169 3.34794 13.8271C3.2779 13.6374 3.26556 13.4311 3.3125 13.2344L4.1725 9.605L1.36 7.17812C1.20706 7.04594 1.09645 6.87164 1.04199 6.67697C0.987525 6.4823 0.991619 6.2759 1.05376 6.08354C1.1159 5.89119 1.23333 5.7214 1.39139 5.59539C1.54945 5.46938 1.74113 5.39272 1.9425 5.375L5.63 5.0775L7.0525 1.635C7.1295 1.44739 7.26054 1.28691 7.42898 1.17396C7.59742 1.06102 7.79564 1.00071 7.99844 1.00071C8.20124 1.00071 8.39946 1.06102 8.56789 1.17396C8.73633 1.28691 8.86738 1.44739 8.94437 1.635L10.3662 5.0775L14.0537 5.375C14.2555 5.39206 14.4478 5.46829 14.6064 5.59413C14.765 5.71997 14.883 5.88982 14.9455 6.08241C15.0081 6.275 15.0124 6.48176 14.9579 6.67678C14.9034 6.8718 14.7926 7.04642 14.6394 7.17875L14.6431 7.17812Z" fill="var(--fill-0, #FF4F4A)"/>
</g>
</svg>
